HIERARCHY
ROOT Hips
{
	OFFSET -3.958830 18.904000 13.208200
	CHANNELS 6 Xposition Yposition Zposition Zrotation Yrotation Xrotation 
	JOINT LHipJoint
	{
		OFFSET 0.000000 0.000000 0.000000
		CHANNELS 3 Zrotation Yrotation Xrotation
		JOINT LeftUpLeg
		{
			OFFSET 1.800000 -1.400000 0.085000
			CHANNELS 3 Zrotation Yrotation Xrotation
			JOINT LeftLeg
			{
				OFFSET 2.215000 -6.000000 0.000000
				CHANNELS 3 Zrotation Yrotation Xrotation
				JOINT LeftFoot
				{
					OFFSET 2.500000 -6.900000 0.000000
					CHANNELS 3 Zrotation Yrotation Xrotation
					JOINT LeftToeBase
					{
						OFFSET 0.200000 -0.500000 1.950000
						CHANNELS 3 Zrotation Yrotation Xrotation
						End Site
						{
							OFFSET 0.000000 0.000000 0.000000
						}
					}
				}
			}
		}
	}
	JOINT RHipJoint
	{
		OFFSET 0.000000 0.000000 0.000000
		CHANNELS 3 Zrotation Yrotation Xrotation
		JOINT RightUpLeg
		{
			OFFSET -1.800000 -1.400000 0.085000
			CHANNELS 3 Zrotation Yrotation Xrotation
			JOINT RightLeg
			{
				OFFSET -2.215000 -6.000000 0.000000
				CHANNELS 3 Zrotation Yrotation Xrotation
				JOINT RightFoot
				{
					OFFSET -2.500000 -6.900000 0.000000
					CHANNELS 3 Zrotation Yrotation Xrotation
					JOINT RightToeBase
					{
						OFFSET -0.200000 -0.500000 1.950000
						CHANNELS 3 Zrotation Yrotation Xrotation
						End Site
						{
							OFFSET 0.000000 0.000000 0.000000
						}
					}
				}
			}
		}
	}
	JOINT LowerBack
	{
		OFFSET 0.000000 0.000000 0.000000
		CHANNELS 3 Zrotation Yrotation Xrotation
		JOINT Spine
		{
			OFFSET -0.087000 1.940000 -0.288900
			CHANNELS 3 Zrotation Yrotation Xrotation
			JOINT Spine1
			{
				OFFSET 0.000000 1.950000 0.060000
				CHANNELS 3 Zrotation Yrotation Xrotation
				JOINT Neck
				{
					OFFSET 0.000000 0.000000 0.000000
					CHANNELS 3 Zrotation Yrotation Xrotation
					JOINT Neck1
					{
						OFFSET 0.000000 1.600000 0.340000
						CHANNELS 3 Zrotation Yrotation Xrotation
						JOINT Head
						{
							OFFSET 0.000000 1.667000 -0.240000
							CHANNELS 3 Zrotation Yrotation Xrotation
							End Site
							{
								OFFSET 0.000000 0.000000 0.000000
							}
						}
					}
				}
				JOINT LeftShoulder
				{
					OFFSET 0.000000 0.000000 0.000000
					CHANNELS 3 Zrotation Yrotation Xrotation
					JOINT LeftArm
					{
						OFFSET 2.700000 1.550000 -0.730000
						CHANNELS 3 Zrotation Yrotation Xrotation
						JOINT LeftForeArm
						{
							OFFSET 5.450000 0.000000 0.000000
							CHANNELS 3 Zrotation Yrotation Xrotation
							JOINT LeftHand
							{
								OFFSET 3.450000 0.000000 0.000000
								CHANNELS 3 Zrotation Yrotation Xrotation
								JOINT LeftHandIndex1
								{
									OFFSET 0.750000 0.000000 0.000000
									CHANNELS 3 Zrotation Yrotation Xrotation
									End Site
									{
										OFFSET 0.000000 0.000000 0.000000
									}
								}
							}
						}
					}
				}
				JOINT RightShoulder
				{
					OFFSET 0.000000 0.000000 0.000000
					CHANNELS 3 Zrotation Yrotation Xrotation
					JOINT RightArm
					{
						OFFSET -2.700000 1.550000 -0.730000
						CHANNELS 3 Zrotation Yrotation Xrotation
						JOINT RightForeArm
						{
							OFFSET -5.450000 0.000000 0.000000
							CHANNELS 3 Zrotation Yrotation Xrotation
							JOINT RightHand
							{
								OFFSET -3.450000 0.000000 0.000000
								CHANNELS 3 Zrotation Yrotation Xrotation
								JOINT RightHandIndex1
								{
									OFFSET -0.750000 0.000000 0.000000
									CHANNELS 3 Zrotation Yrotation Xrotation
									End Site
									{
										OFFSET 0.000000 0.000000 0.000000
									}
								}
							}
						}
					}
				}
			}
		}
	}
}
MOTION
Frames: 9
Frame Time: 0.016667
-1.274850 17.045850 -0.494320 2.662377 1.321850 9.165881 -14.967750 13.674886 2.249936 6.800064 -1.516939 -10.623708 -1.677983 7.083309 28.204993 -0.362533 5.969699 2.789136 -0.167340 -0.461300 -0.379360 18.460458 -11.130649 2.666113 -2.348222 1.851917 -18.478826 4.935618 -4.961201 16.872055 0.205486 -3.370821 3.499888 -0.053550 0.889450 0.103820 -4.166886 -1.487292 -6.430550 12.865908 -3.575807 2.145325 -12.890437 -2.364258 5.095783 3.278182 -5.335168 -8.042069 -9.348168 4.287597 23.021146 -1.764980 0.191180 1.498400 -18.386272 -5.892680 2.477778 -55.489199 -6.473122 -2.063069 -8.854275 -15.791872 -0.655235 -4.314498 2.818507 0.173320 0.562470 -0.594300 0.201140 11.378732 8.721161 5.062095 69.587260 5.561972 -6.639719 14.716340 17.577504 -0.257607 1.994130 -1.383370 -0.477400 0.438280 0.413120 -0.091910 
-1.289050 17.057600 -0.492060 2.708319 1.073270 9.001097 -14.970735 13.709458 2.235676 6.946850 -1.615179 -10.519418 -1.013003 7.110284 29.788414 -0.338199 6.174411 2.709645 -0.175630 -0.484500 -0.366290 18.452198 -11.135111 2.672808 -2.437175 1.792684 -18.142514 5.128906 -4.996418 16.560859 0.195142 -3.360318 3.498977 -0.068540 0.878470 0.103960 -4.146368 -1.519763 -6.449297 12.514359 -3.538733 2.284536 -12.997191 -2.315887 4.949099 3.404530 -5.143883 -8.044662 -9.109331 4.361920 23.588150 -1.694670 0.365400 1.294480 -18.845228 -5.947758 2.446448 -54.811739 -6.151680 -2.042352 -8.311904 -14.928025 -0.732915 -4.312003 2.789918 0.203380 0.548480 -0.581240 0.189810 11.573961 8.655522 5.121007 69.671818 5.343329 -6.885200 15.178360 17.971050 -0.167856 1.993846 -1.358870 -0.487730 0.441980 0.421400 -0.105980 
-1.315880 17.076120 -0.489020 2.865325 0.471434 8.682864 -14.981963 13.764018 2.232131 7.065411 -1.841416 -10.351623 0.193225 7.204792 33.142233 -0.250640 6.616781 2.537598 -0.176970 -0.503270 -0.342120 18.431218 -11.137585 2.679004 -2.742499 1.684007 -17.617526 5.587449 -5.103543 16.132585 0.172247 -3.362058 3.495032 -0.092480 0.844250 0.108360 -4.089583 -1.583723 -6.498605 11.657599 -3.405892 2.575075 -12.989593 -2.184575 4.656020 3.597372 -4.773410 -8.107290 -8.648300 4.470409 24.710747 -1.714650 0.794870 1.129390 -19.642126 -6.030021 2.459423 -53.601165 -5.412351 -2.152189 -7.794480 -13.844563 -0.790490 -4.291739 2.765901 0.244730 0.522350 -0.552170 0.176570 11.988500 8.557165 5.255439 69.687164 4.816426 -7.446502 16.117262 18.949725 0.012261 1.995458 -1.335155 -0.486250 0.427910 0.419590 -0.125750 
-1.348850 17.095870 -0.485290 3.017151 -0.461429 8.287055 -14.999738 13.810224 2.248972 6.987661 -2.202814 -10.197407 1.997454 7.189429 37.832972 -0.095872 7.234972 2.298059 -0.170600 -0.504060 -0.308830 18.404232 -11.133024 2.691191 -3.088508 1.544137 -16.950281 6.190725 -5.203565 15.447539 0.141252 -3.350060 3.492112 -0.117170 0.786120 0.107360 -4.008718 -1.644169 -6.578930 10.500226 -3.125180 2.970047 -12.753542 -1.938256 4.226250 3.761755 -4.286499 -8.206070 -8.035665 4.568012 26.232379 -1.638740 1.319260 0.867020 -20.481784 -5.963424 2.473305 -52.381538 -4.483330 -2.378521 -7.308982 -12.931506 -0.819900 -4.250385 2.748326 0.284920 0.479820 -0.507870 0.158920 12.526777 8.283413 5.426297 69.517779 3.944904 -8.286493 17.586626 20.527306 0.305700 2.008373 -1.313683 -0.469820 0.402290 0.405650 -0.143180 
-1.384520 17.110480 -0.476780 3.162949 -1.571309 7.910761 -15.025258 13.819524 2.289146 6.628273 -2.649457 -10.019118 4.069553 7.027029 43.149168 0.093807 7.991406 2.026143 -0.166950 -0.509380 -0.284490 18.376810 -11.111156 2.703104 -3.510639 1.401408 -16.203931 7.035859 -5.332908 14.577787 0.112847 -3.362755 3.486362 -0.139630 0.742130 0.101780 -3.913844 -1.680327 -6.664549 9.235486 -2.741907 3.281156 -12.307445 -1.636790 3.697880 3.814352 -3.849730 -8.226977 -7.459892 4.676124 27.609161 -1.475060 1.741880 0.775090 -21.210338 -5.502493 2.393127 -51.280302 -3.395725 -2.692106 -7.110193 -12.369934 -0.831058 -4.214802 2.732249 0.321520 0.445210 -0.478160 0.144250 13.205048 7.661246 5.522269 69.031519 2.827113 -9.194430 19.382520 22.407736 0.710559 2.012014 -1.298531 -0.461340 0.383320 0.397010 -0.160100 
-1.416800 17.120290 -0.467140 3.178191 -2.880843 7.593913 -15.052183 13.782384 2.355822 6.030998 -3.112662 -9.902921 6.069023 6.815784 48.687617 0.307260 8.841378 1.738322 -0.168880 -0.523530 -0.260280 18.354990 -11.077299 2.716337 -3.889051 1.312411 -15.570747 8.010675 -5.499796 13.842672 0.083439 -3.398565 3.470095 -0.157560 0.706590 0.098840 -3.823444 -1.665771 -6.754953 8.122989 -2.241868 3.558719 -11.744588 -1.246518 3.118546 3.854639 -3.399338 -8.168847 -6.772968 4.695084 28.675572 -1.600880 2.252670 0.624200 -21.901479 -4.724814 2.227914 -50.208980 -2.111665 -3.207066 -7.421285 -12.617981 -0.807174 -4.185131 2.713960 0.358070 0.419250 -0.451140 0.131820 13.883057 6.711609 5.554712 68.295226 1.507618 -10.175976 21.562900 24.689072 1.287359 2.006894 -1.288380 -0.463990 0.372490 0.392070 -0.180260 
-1.444690 17.124290 -0.457450 2.988145 -4.083967 7.255155 -15.070252 13.716255 2.436647 5.348411 -3.568290 -9.844938 7.969602 6.520097 54.147842 0.545514 9.683174 1.466495 -0.158580 -0.516500 -0.234140 18.345953 -11.041929 2.732945 -4.090892 1.232383 -14.882891 8.953044 -5.659292 13.179367 0.046878 -3.443747 3.456386 -0.169190 0.667790 0.093550 -3.767891 -1.614110 -6.850832 7.456828 -1.732370 3.857734 -11.209253 -0.848646 2.596563 3.861354 -3.043089 -8.121761 -6.255197 4.622886 29.749528 -1.665560 2.586580 0.368930 -22.280439 -3.772719 2.013919 -49.478849 -0.924938 -3.807872 -8.130685 -13.429369 -0.728025 -4.143510 2.703765 0.387780 0.390600 -0.420330 0.126170 14.295082 5.630830 5.626099 67.420662 -0.000079 -11.213845 24.469738 27.407352 2.143616 2.000464 -1.296198 -0.456370 0.361870 0.375670 -0.192760 
-1.468040 17.122310 -0.449520 2.699790 -5.101251 6.868979 -15.088054 13.626600 2.540292 4.558376 -4.050858 -9.980105 9.668671 6.202120 59.502773 0.795865 10.490399 1.213276 -0.127860 -0.476020 -0.197090 18.340090 -11.005418 2.745014 -4.153855 1.142201 -14.122920 9.734754 -5.784030 12.613713 0.002571 -3.486198 3.445800 -0.166440 0.615680 0.081330 -3.721498 -1.544325 -6.955659 6.940467 -1.247030 4.257924 -10.485884 -0.474759 2.153164 3.806817 -2.671286 -8.038541 -5.704329 4.509366 30.865046 -1.664330 2.898430 -0.190710 -22.517150 -2.761767 1.799170 -48.907600 0.225201 -4.506709 -9.365975 -14.798551 -0.559967 -4.084192 2.706109 0.410980 0.354230 -0.382130 0.124910 14.691341 4.474427 5.620635 66.129416 -1.467879 -12.018632 27.770388 30.034088 3.236650 1.999038 -1.318586 -0.437350 0.350910 0.343040 -0.201650 
-1.483130 17.115760 -0.445000 2.462309 -5.853375 6.556019 -15.114486 13.516596 2.668281 3.507000 -4.586757 -10.437744 11.076514 5.845716 64.287430 1.008418 11.217039 0.996148 -0.104100 -0.451170 -0.166030 18.328987 -10.956353 2.743174 -4.386473 1.068349 -13.485126 10.581606 -5.958048 12.238760 -0.035914 -3.555504 3.421337 -0.161640 0.580980 0.075330 -3.662044 -1.489907 -7.052693 6.411361 -0.810267 4.683286 -9.559251 -0.140431 1.788712 3.698652 -2.404274 -7.891080 -5.284892 4.300785 31.537228 -1.772910 3.029290 -0.754650 -22.524804 -1.641747 1.528753 -48.747746 1.206825 -5.212980 -10.922279 -16.539339 -0.330969 -4.042881 2.711094 0.433410 0.330040 -0.356450 0.123190 14.983905 3.295987 5.536785 64.591076 -2.781276 -12.531105 31.122345 32.372529 4.485440 1.989830 -1.346863 -0.429850 0.346800 0.322860 -0.212760 
